<svg width="21" height="20" viewBox="0 0 21 20" fill="none" xmlns="http://www.w3.org/2000/svg">
<g clip-path="url(#clip0_589_2139)">
<path d="M16.0725 8.42135C15.7926 7.45641 15.2835 6.57349 14.5885 5.84795C13.8935 5.1224 13.0333 4.57577 12.0813 4.25468C11.1407 3.98091 10.1521 3.91363 9.18313 4.05747C8.21416 4.2013 7.28772 4.55284 6.46724 5.08802C6.39973 5.15567 6.31506 5.20366 6.22234 5.22684C6.12962 5.25003 6.03233 5.24752 5.94092 5.2196C5.75664 5.1599 5.5906 5.05423 5.45847 4.91258C5.36228 4.73902 5.33117 4.53684 5.37075 4.3424C5.39588 4.24907 5.44001 4.16194 5.50039 4.08647C5.56077 4.011 5.63609 3.94881 5.72163 3.90381C8.04619 2.54416 10.3269 2.19328 12.5199 2.89503C13.5995 3.25414 14.5852 3.85013 15.4048 4.63936C16.2244 5.42859 16.8571 6.3911 17.2567 7.45644H20.1953C19.5944 5.08625 18.146 3.01835 16.1238 1.64372C14.1016 0.269088 11.6459 -0.317008 9.22084 -0.00375418C6.79582 0.3095 4.56961 1.50039 2.96312 3.34376C1.35662 5.18713 0.481188 7.55522 0.502327 10.0003C0.502327 10.395 0.546187 10.7459 0.546187 11.1406H4.27426C4.41664 11.1326 4.55779 11.171 4.67644 11.2501C4.7951 11.3292 4.88484 11.4447 4.93215 11.5792C5.21862 12.5409 5.73007 13.4204 6.42415 14.145C7.11823 14.8696 7.97496 15.4184 8.92338 15.7459C9.86394 16.0197 10.8525 16.087 11.8215 15.9431C12.7905 15.7993 13.7169 15.4478 14.5374 14.9126C14.6049 14.8449 14.6896 14.7969 14.7823 14.7738C14.875 14.7506 14.9723 14.7531 15.0637 14.781C15.248 14.8407 15.4141 14.9464 15.5462 15.088C15.6424 15.2616 15.6735 15.4638 15.6339 15.6582C15.6088 15.7515 15.5646 15.8387 15.5043 15.9141C15.4439 15.9896 15.3686 16.0518 15.283 16.0968C13.9609 16.9864 12.4029 17.4599 10.8093 17.4564C10.0218 17.4505 9.23903 17.3324 8.48478 17.1056C7.4006 16.755 6.41054 16.1621 5.58978 15.3717C4.76902 14.5813 4.13913 13.6143 3.74794 12.5442H0.853204C1.48726 14.8754 2.94383 16.8982 4.95366 18.2388C6.96348 19.5794 9.39068 20.147 11.7866 19.8369C14.1825 19.5267 16.3851 18.3596 17.9873 16.5514C19.5894 14.7432 20.4828 12.4161 20.5023 10.0003C20.5105 9.63424 20.4958 9.26804 20.4585 8.90381H16.7743C16.6247 8.89392 16.4806 8.84389 16.3571 8.75899C16.2336 8.67408 16.1353 8.55744 16.0725 8.42135Z" fill="#100A42"/>
<path d="M10.544 14.375C11.4075 14.3667 12.2492 14.1031 12.9631 13.6174C13.677 13.1316 14.2312 12.4455 14.5559 11.6453C14.8806 10.8452 14.9612 9.9669 14.7877 9.12103C14.6142 8.27515 14.1942 7.49954 13.5807 6.89189C12.9672 6.28423 12.1876 5.87171 11.3401 5.70629C10.4926 5.54086 9.61512 5.62992 8.81814 5.96225C8.02116 6.29458 7.34035 6.85533 6.86145 7.57385C6.38256 8.29238 6.12699 9.13655 6.12695 10C6.12693 10.5781 6.24147 11.1505 6.46396 11.6841C6.68645 12.2176 7.01248 12.7018 7.4232 13.1086C7.83392 13.5154 8.32119 13.8368 8.85686 14.0542C9.39252 14.2715 9.96596 14.3806 10.544 14.375Z" fill="white"/>
</g>
<defs>
<clipPath id="clip0_589_2139">
<rect width="20" height="20" fill="white" transform="translate(0.5)"/>
</clipPath>
</defs>
</svg>
